<?xml version="1.0" standalone="no"?>
<!DOCTYPE svg PUBLIC "-//W3C//DTD SVG 20010904//EN"
 "http://www.w3.org/TR/2001/REC-SVG-20010904/DTD/svg10.dtd">
<svg version="1.0" xmlns="http://www.w3.org/2000/svg"
 width="640.000000pt" height="640.000000pt" viewBox="0 0 640.000000 640.000000"
 preserveAspectRatio="xMidYMid meet">
<metadata>
Created by potrace 1.11, written by Peter Selinger 2001-2013
</metadata>
<g transform="translate(0.000000,640.000000) scale(0.100000,-0.100000)"
fill="#000000" stroke="none">
<path d="M4852 6045 c-126 -38 -200 -148 -189 -281 18 -225 290 -325 448 -163
160 164 58 438 -169 453 -26 2 -66 -2 -90 -9z"/>
<path d="M1005 5413 c2 -249 6 -330 21 -385 4 -12 -4 -18 -26 -23 -39 -9 -94
-56 -128 -110 -36 -56 -38 -138 -3 -166 47 -38 130 -16 192 52 l38 41 22 -44
c12 -23 30 -55 40 -69 18 -26 18 -28 -2 -74 -30 -67 -23 -136 18 -177 25 -25
38 -30 84 -31 34 -1 67 5 90 16 l37 18 60 -38 c33 -21 67 -43 77 -48 16 -10
15 -13 -9 -49 -31 -46 -36 -78 -23 -151 8 -48 53 -99 102 -115 l33 -11 0 -177
c0 -97 3 -205 7 -238 l6 -61 -43 -7 c-106 -17 -167 -130 -124 -229 18 -42 79
-103 115 -115 15 -6 50 -9 77 -7 l49 2 33 -101 c19 -55 62 -159 97 -231 253
-523 726 -947 1285 -1150 58 -22 107 -40 109 -42 2 -1 -8 -34 -23 -73 -23 -63
-47 -156 -60 -230 -3 -14 -5 -26 -5 -28 -1 -2 -20 8 -43 21 -85 49 -188 57
-270 22 -43 -17 -58 -35 -68 -79 -14 -64 54 -133 160 -161 54 -14 148 -12 179
5 29 15 38 12 37 -13 l-1 -22 275 -2 c298 -2 371 6 523 53 212 67 434 224 572
406 30 41 44 50 93 63 358 97 639 236 913 451 99 78 275 251 344 339 22 28 43
52 46 55 9 8 123 181 152 232 82 142 155 311 202 468 24 81 73 308 72 340 0 8
3 38 7 65 5 42 10 258 7 290 -1 7 -643 10 -1904 10 l-1902 0 -47 24 c-57 29
-99 71 -130 131 -19 37 -23 64 -26 155 l-4 111 53 24 c256 115 471 367 538
632 32 124 34 144 36 432 l2 279 -131 -6 c-256 -10 -468 -103 -649 -282 -71
-71 -148 -175 -182 -247 l-18 -36 -48 80 c-184 306 -479 479 -829 487 l-106 2
1 -278z m279 76 c228 -53 443 -232 541 -453 33 -74 65 -202 67 -271 l2 -55 88
0 c48 0 88 3 89 8 1 4 2 18 4 32 15 140 30 201 77 300 110 236 350 417 599
453 l37 5 -3 -186 c-3 -228 -20 -314 -85 -442 -97 -192 -288 -349 -497 -411
l-43 -12 4 -186 c4 -209 14 -257 71 -342 61 -89 149 -156 250 -187 44 -14 251
-16 1865 -18 998 -1 1818 -2 1821 -3 5 -1 -12 -164 -26 -241 -58 -323 -209
-657 -413 -914 -74 -93 -249 -268 -337 -338 -59 -46 -131 -96 -240 -166 -96
-61 -466 -214 -481 -199 -3 2 4 32 15 65 19 55 31 102 46 177 3 17 8 85 12
152 l6 123 -29 1 c-16 0 -128 1 -249 1 -308 1 -371 -7 -545 -64 -89 -29 -102
-30 -202 -25 -59 3 -115 10 -125 16 -10 6 -13 11 -7 11 6 0 21 23 34 51 26 63
22 100 -20 158 -100 138 -343 98 -385 -64 l-11 -47 -95 50 c-118 62 -216 125
-316 204 -89 69 -301 277 -352 344 -18 24 -36 44 -40 44 -3 0 -36 -24 -73 -54
l-68 -54 77 -88 c323 -372 689 -607 1097 -706 l131 -32 -90 -91 c-50 -49 -103
-111 -119 -136 l-29 -46 -94 31 -94 31 8 30 c23 94 -29 183 -134 224 -70 28
-203 4 -242 -42 -15 -19 -14 -20 -146 79 -96 70 -103 80 -68 89 91 23 136 120
97 213 -36 86 -115 136 -216 137 -74 0 -107 -17 -143 -73 -11 -17 -22 -31 -25
-32 -5 0 -143 183 -147 197 -2 4 10 17 26 27 59 40 80 114 54 193 -29 86 -122
147 -216 141 l-51 -3 -27 71 c-36 100 -75 259 -94 391 -22 148 -26 548 -7 613
13 43 11 94 -6 170 -4 19 -7 53 -6 76 l2 41 -57 18 c-142 44 -281 134 -311
202 -13 30 -30 48 -58 62 -44 22 -84 79 -130 181 -53 116 -65 187 -69 397 l-4
192 28 -5 c15 -2 50 -9 77 -15z m3280 -3290 c6 -8 -22 -147 -44 -216 l-22 -70
-50 3 c-134 7 -258 -85 -258 -192 0 -35 5 -47 35 -73 20 -17 46 -31 58 -31 18
-1 12 -10 -38 -56 -93 -86 -144 -117 -180 -108 -113 26 -232 -4 -292 -72 -18
-21 -33 -43 -33 -49 0 -20 -30 -23 -225 -25 -210 -1 -194 -9 -174 91 6 30 12
61 13 69 2 8 12 14 22 13 152 -19 256 29 285 130 7 24 4 41 -12 74 -17 35 -31
47 -79 70 -33 15 -59 31 -59 35 -1 13 98 124 148 166 51 43 51 43 60 20 38
-100 185 -135 300 -73 91 50 125 125 92 201 -10 23 -24 45 -30 48 -6 4 -11 11
-11 16 0 7 105 25 195 32 44 4 295 1 299 -3z"/>
<path d="M2008 3980 c-90 -26 -142 -97 -142 -192 1 -135 137 -223 260 -169 53
24 67 38 96 100 33 71 16 151 -47 217 -33 35 -119 57 -167 44z"/>
<path d="M2435 3541 c-54 -14 -95 -41 -123 -83 -22 -35 -27 -52 -26 -104 1
-90 49 -155 143 -191 79 -30 181 6 226 81 88 144 -55 337 -220 297z"/>
<path d="M5130 3533 c-133 -49 -200 -135 -200 -258 0 -238 287 -354 458 -186
172 167 46 454 -198 450 -25 0 -52 -3 -60 -6z m134 -202 c24 -27 27 -60 10
-98 -11 -21 -26 -35 -43 -39 -14 -3 -30 -7 -36 -9 -16 -4 -64 24 -75 44 -50
94 73 181 144 102z"/>
<path d="M2145 3190 l-60 -60 45 -45 45 -45 64 64 63 63 -38 42 c-21 22 -43
41 -49 41 -6 0 -37 -27 -70 -60z"/>
<path d="M2850 3045 c-77 -35 -114 -99 -108 -186 7 -98 86 -175 192 -186 47
-5 64 -2 109 21 144 70 153 242 17 332 -51 34 -156 43 -210 19z"/>
<path d="M5545 5326 c-150 -43 -257 -177 -262 -329 -5 -154 73 -280 212 -343
49 -23 75 -28 140 -28 69 -1 89 3 147 31 79 37 137 94 175 171 25 50 28 68 28
152 0 83 -3 102 -27 150 -80 160 -253 243 -413 196z"/>
<path d="M535 5148 c-36 -21 -86 -83 -120 -152 -56 -111 -45 -138 31 -77 58
46 114 134 121 189 6 44 -3 56 -32 40z"/>
<path d="M753 5133 c-36 -7 -110 -81 -137 -136 -54 -114 -28 -161 66 -120 77
35 138 125 138 204 0 28 -5 41 -19 49 -11 5 -21 9 -23 9 -2 -1 -13 -4 -25 -6z"/>
<path d="M342 5017 c-28 -30 -87 -150 -106 -214 -8 -29 -14 -53 -12 -53 14 0
102 158 130 233 21 56 18 66 -12 34z"/>
<path d="M192 4795 c3 -40 -2 -56 -14 -49 -6 4 -8 3 -5 -3 4 -6 -5 -52 -19
-103 -13 -51 -23 -95 -21 -97 2 -2 20 51 40 118 26 87 34 126 27 138 -8 14
-10 13 -8 -4z"/>
<path d="M295 4692 c-35 -33 -97 -166 -93 -195 3 -20 6 -19 45 17 63 57 115
181 84 200 -5 3 -21 -7 -36 -22z"/>
<path d="M458 4682 c-35 -23 -64 -61 -88 -115 -59 -133 72 -140 144 -7 54 98
20 172 -56 122z"/>
<path d="M4910 4600 c-56 -26 -105 -73 -133 -125 -31 -58 -33 -175 -4 -234 46
-97 137 -155 242 -154 74 1 119 19 175 70 135 121 112 337 -47 430 -63 37
-169 43 -233 13z"/>
<path d="M176 4588 c-19 -30 -69 -194 -64 -209 4 -13 38 72 69 174 19 62 18
70 -5 35z"/>
<path d="M665 4543 c-46 -23 -78 -62 -96 -116 -27 -79 -1 -129 65 -129 82 0
147 62 154 147 4 43 0 56 -20 79 -28 33 -63 39 -103 19z"/>
<path d="M142 4322 c-12 -16 -27 -50 -34 -75 -6 -25 -15 -44 -19 -41 -4 2 -11
-1 -15 -7 -4 -7 -3 -9 4 -5 6 3 12 -2 14 -11 5 -25 62 59 77 112 14 51 0 65
-27 27z"/>
<path d="M258 4320 c-26 -16 -60 -68 -68 -104 -16 -70 31 -87 85 -33 66 66 52
177 -17 137z"/>
<path d="M934 4318 c-117 -24 -159 -170 -74 -260 17 -18 32 -23 75 -23 83 0
139 51 150 135 13 101 -56 168 -151 148z"/>
<path d="M388 4177 c-27 -22 -56 -81 -52 -104 1 -7 2 -20 3 -28 0 -8 11 -23
23 -35 66 -61 170 22 153 122 -11 66 -74 88 -127 45z"/>
<path d="M68 4157 c-3 -19 -2 -25 4 -19 6 6 8 18 6 28 -3 14 -5 12 -10 -9z"/>
<path d="M62 4040 c-5 -22 -6 -38 -2 -35 10 6 24 64 17 71 -2 3 -9 -13 -15
-36z"/>
<path d="M106 4048 c-35 -55 -10 -113 32 -74 25 22 31 45 21 74 -11 28 -35 28
-53 0z"/>
<path d="M1226 3969 c-78 -22 -124 -115 -102 -206 9 -37 68 -101 100 -108 59
-13 78 -12 118 8 76 39 106 141 66 223 -31 63 -116 102 -182 83z"/>
<path d="M616 3945 c-73 -38 -97 -116 -56 -183 40 -66 131 -80 180 -27 30 32
38 101 16 146 -27 57 -95 87 -140 64z"/>
<path d="M203 3932 c-32 -20 -32 -95 1 -128 43 -44 107 -6 101 61 -2 20 -11
45 -21 56 -17 19 -59 25 -81 11z"/>
<path d="M57 3907 c-3 -9 -2 -19 4 -23 15 -9 18 -2 9 20 -6 17 -7 18 -13 3z"/>
<path d="M85 3820 c-10 -15 5 -73 24 -99 27 -35 55 -22 45 21 -12 56 -54 103
-69 78z"/>
<path d="M55 3786 c3 -22 8 -42 10 -45 9 -8 4 43 -6 64 -6 15 -7 9 -4 -19z"/>
<path d="M346 3694 c-28 -27 -24 -85 10 -137 56 -86 158 -70 149 24 -3 21 -11
52 -20 69 -27 52 -106 78 -139 44z"/>
<path d="M61 3624 c0 -11 3 -14 6 -6 3 7 2 16 -1 19 -3 4 -6 -2 -5 -13z"/>
<path d="M886 3629 c-88 -24 -115 -126 -56 -213 65 -93 176 -102 221 -16 25
46 24 86 -3 140 -36 69 -102 105 -162 89z"/>
<path d="M81 3620 c-1 -49 51 -190 69 -190 12 0 1 55 -21 115 -22 58 -48 99
-48 75z"/>
<path d="M175 3579 c-20 -31 45 -161 87 -175 31 -9 41 9 34 61 -12 74 -97 155
-121 114z"/>
<path d="M91 3431 c-2 -48 44 -201 60 -201 5 0 4 12 -2 28 -6 15 -10 28 -10
29 0 2 -1 8 -3 15 -2 7 -12 40 -21 73 -23 82 -23 83 -24 56z"/>
<path d="M580 3373 c-24 -9 -50 -46 -50 -73 0 -35 32 -101 64 -133 77 -77 151
-68 162 19 12 90 -104 212 -176 187z"/>
<path d="M177 3292 c-16 -24 44 -175 92 -232 17 -20 22 -22 30 -11 13 19 -8
85 -53 164 -37 67 -61 94 -69 79z"/>
<path d="M331 3257 c-28 -35 39 -177 104 -217 41 -26 54 -25 64 2 19 53 -37
166 -103 207 -39 25 -50 26 -65 8z"/>
<path d="M1162 3200 c-39 -24 -55 -54 -55 -105 1 -52 14 -84 55 -131 43 -49
104 -76 155 -68 130 19 127 214 -4 291 -56 33 -110 37 -151 13z"/>
<path d="M138 3122 c9 -34 18 -59 20 -57 6 6 -19 97 -29 109 -4 5 0 -19 9 -52z"/>
<path d="M190 3017 c23 -100 100 -277 120 -277 9 0 -11 83 -30 125 -32 74 -83
176 -90 180 -4 3 -4 -10 0 -28z"/>
<path d="M811 2949 c-53 -86 67 -259 180 -259 100 0 96 149 -7 239 -43 38 -73
51 -120 51 -28 0 -38 -6 -53 -31z"/>
<path d="M334 2877 c-16 -43 91 -238 148 -268 79 -42 -18 188 -109 258 -28 22
-34 23 -39 10z"/>
<path d="M200 2875 c0 -26 109 -300 116 -292 4 4 -31 106 -56 162 -9 22 -25
61 -35 88 -16 41 -25 57 -25 42z"/>
<path d="M546 2839 c-28 -40 20 -145 98 -217 25 -23 49 -42 53 -43 5 0 16 -2
26 -4 10 -2 24 6 32 19 13 20 13 28 0 73 -35 116 -170 227 -209 172z"/>
<path d="M1521 2748 c-99 -49 -74 -197 48 -283 37 -26 52 -30 108 -30 60 0 67
2 94 33 65 73 14 219 -94 270 -62 30 -110 33 -156 10z"/>
<path d="M350 2579 c0 -12 60 -121 148 -270 28 -47 45 -51 30 -6 -35 102 -178
324 -178 276z"/>
<path d="M1135 2495 c-82 -81 71 -285 214 -285 12 0 34 12 48 26 21 21 25 32
20 65 -20 147 -203 273 -282 194z"/>
<path d="M554 2415 c-20 -52 138 -277 204 -290 82 -15 -65 237 -170 291 -25
13 -29 13 -34 -1z"/>
<path d="M390 2380 c49 -104 129 -244 136 -237 5 4 -53 116 -93 179 -13 21
-23 41 -23 45 0 5 -10 19 -21 33 -20 24 -20 24 1 -20z"/>
<path d="M821 2401 c-40 -26 11 -144 96 -221 63 -57 100 -73 134 -56 19 10 24
19 22 49 -7 116 -180 273 -252 228z"/>
<path d="M1913 2260 c-41 -24 -53 -48 -53 -103 0 -71 71 -157 160 -193 46 -19
122 -16 158 6 131 81 -4 310 -182 310 -33 0 -62 -7 -83 -20z"/>
<path d="M6338 2223 c-54 -64 -204 -301 -195 -309 10 -11 128 154 171 238 24
49 43 88 42 88 -2 0 -10 -8 -18 -17z"/>
<path d="M565 2138 c25 -78 187 -288 222 -288 27 0 -80 170 -166 263 -47 51
-66 60 -56 25z"/>
<path d="M1520 2043 c-99 -39 -26 -212 116 -274 91 -41 157 -29 175 30 10 33
8 43 -14 87 -14 28 -43 67 -64 87 -57 56 -161 90 -213 70z"/>
<path d="M834 1947 c-10 -28 35 -93 118 -169 123 -113 134 -120 147 -104 25
30 -87 188 -176 248 -51 35 -82 43 -89 25z"/>
<path d="M1142 1918 c-60 -60 133 -277 249 -278 54 0 63 41 23 116 -59 111
-224 210 -272 162z"/>
<path d="M5960 1831 c-90 -93 -152 -182 -138 -197 10 -9 98 57 142 107 42 46
100 133 110 167 14 44 -18 22 -114 -77z"/>
<path d="M2397 1835 c-56 -14 -76 -30 -94 -73 -39 -94 78 -215 222 -229 74 -7
140 23 161 73 14 34 14 41 -1 81 -18 48 -68 104 -112 126 -49 26 -125 35 -176
22z"/>
<path d="M750 1788 c40 -57 74 -97 64 -78 -11 22 -86 120 -91 120 -2 0 10 -19
27 -42z"/>
<path d="M6059 1763 c-20 -21 -46 -51 -58 -68 -13 -16 -37 -46 -55 -65 -17
-19 -42 -51 -55 -70 -33 -50 92 80 150 155 72 94 78 112 18 48z"/>
<path d="M5679 1697 c-30 -24 -85 -68 -124 -96 -73 -55 -94 -81 -95 -118 -1
-74 185 38 271 164 30 42 35 83 13 90 -6 2 -35 -16 -65 -40z"/>
<path d="M864 1695 c57 -91 138 -180 208 -231 27 -19 48 -30 48 -26 0 24 -188
226 -252 270 l-23 16 19 -29z"/>
<path d="M4867 1708 c-125 -26 -241 -144 -215 -218 43 -124 333 -15 364 136
12 64 -56 102 -149 82z"/>
<path d="M5296 1634 c-61 -22 -108 -53 -158 -107 -114 -119 -47 -189 107 -112
109 56 201 177 165 220 -15 18 -62 18 -114 -1z"/>
<path d="M1905 1555 c-14 -13 -25 -34 -25 -46 0 -59 72 -141 160 -180 185 -83
292 36 149 165 -91 82 -233 113 -284 61z"/>
<path d="M1140 1536 c0 -60 198 -236 284 -252 22 -4 26 -1 26 19 0 13 -15 44
-34 69 -36 46 -160 146 -209 166 -37 16 -67 15 -67 -2z"/>
<path d="M5731 1469 c-33 -22 -99 -78 -146 -124 -78 -77 -98 -105 -76 -105 23
0 184 129 246 199 67 75 59 85 -24 30z"/>
<path d="M1528 1466 c-31 -16 -31 -45 1 -91 21 -31 52 -52 150 -102 69 -35
131 -63 139 -61 24 5 36 32 28 64 -4 16 -31 52 -59 79 -88 84 -208 136 -259
111z"/>
<path d="M1266 1250 c76 -67 240 -185 209 -150 -20 23 -172 146 -232 188 -55
39 -46 24 23 -38z"/>
<path d="M5331 1285 c-150 -70 -291 -215 -208 -215 55 0 233 110 282 174 52
68 21 85 -74 41z"/>
<path d="M4433 1274 c-75 -15 -129 -42 -171 -85 -117 -120 49 -200 225 -110
69 35 101 63 118 104 31 75 -47 117 -172 91z"/>
<path d="M4895 1216 c-38 -18 -98 -43 -131 -56 -94 -37 -138 -117 -76 -141 80
-31 300 81 334 171 8 20 5 28 -12 42 -29 23 -32 23 -115 -16z"/>
<path d="M2396 1179 c-89 -25 -85 -111 7 -168 42 -26 184 -59 242 -57 111 4
112 107 2 174 -71 44 -191 68 -251 51z"/>
<path d="M5339 1082 c-63 -42 -131 -90 -150 -105 l-34 -29 50 27 c94 51 280
186 254 185 -2 0 -56 -35 -120 -78z"/>
<path d="M1520 1139 c0 -52 311 -241 344 -209 27 27 -159 164 -279 204 -54 19
-65 20 -65 5z"/>
<path d="M1908 1100 l-22 -17 20 -34 c49 -84 263 -178 339 -149 96 37 -106
194 -273 213 -31 3 -49 0 -64 -13z"/>
<path d="M3379 1095 c-59 -19 -109 -64 -109 -99 0 -32 37 -71 88 -93 55 -24
196 -21 259 7 48 20 83 60 83 93 0 27 -49 75 -93 90 -56 19 -171 20 -228 2z"/>
<path d="M4983 935 c-143 -49 -325 -165 -258 -165 68 0 345 141 345 176 0 18
-2 18 -87 -11z"/>
<path d="M3933 930 c-112 -18 -169 -47 -180 -89 -14 -55 40 -85 147 -84 162 2
302 90 245 153 -17 18 -77 41 -100 39 -5 -1 -56 -9 -112 -19z"/>
<path d="M2845 891 c-61 -20 -81 -57 -49 -92 42 -48 176 -86 279 -81 145 8
173 92 49 147 -51 23 -81 29 -190 39 -22 2 -62 -4 -89 -13z"/>
<path d="M4408 849 c-133 -45 -210 -118 -143 -135 92 -23 328 58 357 122 10
20 9 27 -3 35 -26 17 -128 6 -211 -22z"/>
<path d="M1985 800 c86 -61 343 -158 320 -120 -15 25 -243 123 -315 136 l-35
6 30 -22z"/>
<path d="M2368 784 c-10 -3 -18 -13 -18 -21 0 -32 90 -79 202 -107 120 -30
198 -27 198 8 0 26 -111 82 -210 107 -45 11 -150 19 -172 13z"/>
<path d="M4540 669 c-160 -54 -231 -81 -227 -86 5 -4 337 104 346 112 12 13
-42 1 -119 -26z"/>
<path d="M3457 684 c-1 -1 -22 -5 -46 -8 -57 -8 -115 -36 -119 -59 -6 -30 60
-49 178 -53 117 -4 201 12 233 45 28 27 11 46 -55 62 -43 10 -183 20 -191 13z"/>
<path d="M3965 590 c-166 -37 -211 -76 -83 -72 55 1 93 7 187 26 65 14 130 37
141 51 12 14 4 16 -76 14 -49 -1 -125 -10 -169 -19z"/>
<path d="M2880 562 c-103 -10 -16 -44 174 -68 33 -4 136 -7 179 -5 30 1 36 16
10 24 -86 27 -141 38 -218 43 -49 3 -94 6 -100 7 -5 1 -26 1 -45 -1z"/>
<path d="M3495 440 c-3 -5 -1 -10 4 -10 6 0 11 5 11 10 0 6 -2 10 -4 10 -3 0
-8 -4 -11 -10z"/>
<path d="M3550 442 c0 -4 21 -6 48 -4 82 5 89 9 20 11 -38 0 -68 -2 -68 -7z"/>
<path d="M3388 433 c6 -2 18 -2 25 0 6 3 1 5 -13 5 -14 0 -19 -2 -12 -5z"/>
<path d="M3443 433 c9 -2 23 -2 30 0 6 3 -1 5 -18 5 -16 0 -22 -2 -12 -5z"/>
</g>
</svg>
